<?xml version="1.0" encoding="utf-8"?>
<!-- Generator: Adobe Illustrator 16.0.0, SVG Export Plug-In . SVG Version: 6.00 Build 0)  -->
<!DOCTYPE svg PUBLIC "-//W3C//DTD SVG 1.1//EN" "http://www.w3.org/Graphics/SVG/1.1/DTD/svg11.dtd">
<svg version="1.1" id="Слой_1" xmlns="http://www.w3.org/2000/svg" xmlns:xlink="http://www.w3.org/1999/xlink" x="0px" y="0px"
	 width="17.25px" height="135.5px" viewBox="0 0 17.25 135.5" enable-background="new 0 0 17.25 135.5" xml:space="preserve">
<polygon fill="#4C74A4" points="3.993,12 11.371,0.953 10.392,0 3.89,9.88 0.842,6.432 0,7.521 "/>
<path fill="#4C74A4" d="M3,20c-1.658,0-3-1.343-3-3s1.342-3,3-3c1.656,0,3,1.343,3,3S4.656,20,3,20z"/>
<polygon fill="none" stroke="#908C8B" stroke-miterlimit="10" points="7,21.108 8.625,24.399 12.258,24.928 9.629,27.49 
	10.25,31.108 7,29.399 3.75,31.108 4.371,27.49 1.742,24.928 5.375,24.399 "/>
<polygon fill="none" stroke="#DF8644" stroke-miterlimit="10" points="6.629,34 8.254,37.292 11.885,37.819 9.257,40.382 9.877,44 
	6.629,42.292 3.379,44 4,40.382 1.371,37.819 5.004,37.292 "/>
<polygon fill="#DF8644" stroke="#DF8644" stroke-miterlimit="10" points="7.145,47 8.768,50.292 12.4,50.819 9.771,53.382 
	10.392,57 7.145,55.292 3.894,57 4.514,53.382 1.885,50.819 5.518,50.292 "/>
<rect x="4" y="64" fill="#0D0F0F" width="11" height="1"/>
<rect x="4" y="72" fill="#0D0F0F" width="11" height="1"/>
<rect x="3" y="63" fill="#0D0F0F" width="1" height="14"/>
<rect y="62" fill="#0D0F0F" width="4" height="1"/>
<rect x="15" y="64" fill="#0D0F0F" width="1" height="8"/>
<rect x="1" y="77" fill="#0D0F0F" width="14" height="1"/>
<rect x="4" y="78" fill="#0D0F0F" width="2" height="1"/>
<rect x="11" y="78" fill="#0D0F0F" width="2" height="1"/>
<rect x="4" y="83" fill="#DF8644" width="11" height="1"/>
<rect x="4" y="91" fill="#DF8644" width="11" height="1"/>
<rect x="3" y="82" fill="#DF8644" width="1" height="14"/>
<rect y="81" fill="#DF8644" width="4" height="1"/>
<rect x="15" y="83" fill="#DF8644" width="1" height="8"/>
<rect x="1" y="96" fill="#DF8644" width="14" height="1"/>
<rect x="4" y="97" fill="#DF8644" width="2" height="1"/>
<rect x="11" y="97" fill="#DF8644" width="2" height="1"/>
<rect x="4" y="103" fill="#DF8644" width="11" height="1"/>
<rect x="4" y="111" fill="#DF8644" width="11" height="1"/>
<rect x="3" y="102" fill="#DF8644" width="1" height="14"/>
<rect y="101" fill="#DF8644" width="4" height="1"/>
<rect x="15" y="103" fill="#DF8644" width="1" height="8"/>
<rect x="1" y="116" fill="#DF8644" width="14" height="1"/>
<rect x="4" y="117" fill="#DF8644" width="2" height="1"/>
<rect x="11" y="117" fill="#DF8644" width="2" height="1"/>
<rect x="4" y="104" fill="#DF8644" width="11" height="7"/>
<line fill="none" stroke="#0D0F0F" stroke-miterlimit="10" x1="0.5" y1="122" x2="12.5" y2="134"/>
<line fill="none" stroke="#0D0F0F" stroke-miterlimit="10" x1="12.5" y1="122" x2="0.5" y2="134"/>
</svg>
